<?xml version="1.0" encoding="UTF-8" standalone="no"?>
<!-- Created with Inkscape (http://www.inkscape.org/) -->

<svg
   width="162.2332mm"
   height="170.15675mm"
   viewBox="0 0 162.2332 170.15675"
   version="1.1"
   id="svg1"
   sodipodi:docname="controno_pequeno.svg"
   inkscape:version="1.4.2 (2aeb623e1d, 2025-05-12)"
   xmlns:inkscape="http://www.inkscape.org/namespaces/inkscape"
   xmlns:sodipodi="http://sodipodi.sourceforge.net/DTD/sodipodi-0.dtd"
   xmlns="http://www.w3.org/2000/svg"
   xmlns:svg="http://www.w3.org/2000/svg">
  <sodipodi:namedview
     id="namedview1"
     pagecolor="#ffffff"
     bordercolor="#000000"
     borderopacity="0.25"
     inkscape:showpageshadow="2"
     inkscape:pageopacity="0.0"
     inkscape:pagecheckerboard="0"
     inkscape:deskcolor="#d1d1d1"
     inkscape:document-units="mm"
     inkscape:zoom="0.32945244"
     inkscape:cx="227.65046"
     inkscape:cy="684.46905"
     inkscape:window-width="1920"
     inkscape:window-height="975"
     inkscape:window-x="0"
     inkscape:window-y="32"
     inkscape:window-maximized="1"
     inkscape:current-layer="layer1" />
  <defs
     id="defs1">
    <clipPath
       clipPathUnits="userSpaceOnUse"
       id="clipPath38">
      <path
         d="M 0,595.276 H 841.89 V 0 H 0 Z"
         transform="translate(-296.3248,-322.93271)"
         id="path38" />
    </clipPath>
  </defs>
  <g
     inkscape:label="Layer 1"
     inkscape:groupmode="layer"
     id="layer1"
     transform="translate(-1.129815,-1.5381669)">
    <path
       id="path37"
       d="m 0,0 -9.363,-9.364 c -1.283,-1.283 -3.364,-1.283 -4.647,0 l -6.525,6.525 c -1.283,1.283 -1.283,3.363 0,4.646 l 9.364,9.364 c 1.283,1.283 3.363,1.283 4.646,0 L 0,4.646 C 1.283,3.363 1.283,1.283 0,0 m -15.319,-15.32 -9.365,-9.364 c -1.282,-1.283 -3.362,-1.283 -4.645,0 l -6.525,6.526 c -1.284,1.283 -1.284,3.363 0,4.646 l 9.363,9.364 c 1.283,1.283 3.363,1.283 4.646,0 l 6.526,-6.526 c 1.283,-1.283 1.283,-3.363 0,-4.646 m -15.32,-15.319 -9.364,-9.364 c -1.283,-1.284 -3.363,-1.284 -4.646,0 l -6.526,6.525 c -1.283,1.283 -1.283,3.363 0,4.646 l 9.364,9.364 c 1.284,1.283 3.364,1.283 4.647,0 l 6.525,-6.526 c 1.284,-1.282 1.284,-3.363 0,-4.645 m -26.168,2.793 -6.525,6.526 c -1.283,1.282 -1.283,3.362 0,4.646 l 9.364,9.363 c 1.283,1.284 3.363,1.284 4.646,0 l 6.526,-6.525 c 1.282,-1.283 1.282,-3.363 0,-4.646 l -9.364,-9.364 c -1.283,-1.283 -3.363,-1.283 -4.647,0 m -12.157,12.158 -6.525,6.525 c -1.283,1.283 -1.283,3.363 0,4.646 l 9.364,9.364 c 1.282,1.283 3.362,1.283 4.646,0 l 6.525,-6.525 c 1.283,-1.283 1.283,-3.364 0,-4.646 l -9.364,-9.364 c -1.283,-1.284 -3.363,-1.284 -4.646,0 m 8.794,26.491 9.364,9.364 c 1.284,1.283 3.364,1.283 4.647,0 l 6.525,-6.526 c 1.282,-1.283 1.282,-3.363 0,-4.646 l -9.364,-9.364 c -1.283,-1.283 -3.363,-1.283 -4.647,0 l -6.525,6.526 c -1.283,1.282 -1.283,3.363 0,4.646 m 15.319,15.319 9.365,9.364 c 1.283,1.283 3.363,1.283 4.646,0 l 6.526,-6.525 c 1.283,-1.283 1.283,-3.363 0,-4.646 l -9.365,-9.364 c -1.283,-1.283 -3.363,-1.283 -4.646,0 l -6.526,6.525 c -1.283,1.283 -1.283,3.363 0,4.646 m 17.374,-29.284 -9.364,-9.364 c -1.283,-1.284 -3.363,-1.284 -4.646,0 l -6.526,6.525 c -1.283,1.283 -1.283,3.363 0,4.646 l 9.365,9.364 c 1.283,1.283 3.363,1.283 4.646,0 l 6.525,-6.525 c 1.283,-1.283 1.283,-3.363 0,-4.646 m 8.794,26.491 6.526,-6.526 c 1.283,-1.282 1.283,-3.363 0,-4.646 l -9.364,-9.364 c -1.284,-1.283 -3.364,-1.283 -4.646,0 l -6.525,6.526 c -1.284,1.283 -1.284,3.363 0,4.646 l 9.363,9.364 c 1.283,1.283 3.363,1.283 4.646,0 m 38.04,-42.254 -5.355,7.378 C 9.967,-5.987 9.967,1.538 14.003,7.098 l 5.354,7.377 c 0.404,0.583 0.493,1.233 0.269,1.951 -0.181,0.675 -0.63,1.123 -1.348,1.347 L 9.531,20.65 C 3.02,22.791 -1.383,28.871 -1.383,35.726 v 9.117 c 0,0.718 -0.293,1.302 -0.877,1.751 -0.673,0.448 -1.324,0.538 -1.952,0.269 l -8.712,-2.804 c -6.532,-2.103 -13.676,0.231 -17.707,5.784 l -5.363,7.39 c -0.404,0.538 -0.987,0.808 -1.751,0.808 -0.763,0 -1.347,-0.27 -1.751,-0.808 l -5.364,-7.39 c -4.031,-5.554 -11.174,-7.887 -17.706,-5.785 l -8.713,2.805 c -0.628,0.269 -1.28,0.179 -1.953,-0.27 -0.583,-0.448 -0.875,-1.032 -0.875,-1.75 v -9.117 c 0,-6.855 -4.402,-12.935 -10.914,-15.076 l -8.749,-2.877 c -0.717,-0.224 -1.167,-0.673 -1.346,-1.347 -0.224,-0.718 -0.135,-1.368 0.269,-1.951 l 5.355,-7.378 c 4.035,-5.559 4.036,-13.084 0.001,-18.644 l -5.356,-7.378 c -0.404,-0.538 -0.493,-1.189 -0.269,-1.952 0.179,-0.671 0.629,-1.121 1.346,-1.347 l 8.749,-2.876 c 6.512,-2.141 10.914,-8.222 10.914,-15.076 v -9.117 c 0,-0.717 0.292,-1.302 0.875,-1.75 0.673,-0.45 1.325,-0.54 1.953,-0.271 l 8.713,2.805 c 6.532,2.103 13.675,-0.231 17.706,-5.784 l 5.364,-7.39 c 0.449,-0.583 1.032,-0.875 1.751,-0.875 0.718,0 1.302,0.292 1.751,0.875 l 5.363,7.39 c 4.031,5.553 11.175,7.887 17.707,5.785 l 8.713,-2.806 c 0.627,-0.269 1.278,-0.179 1.951,0.271 0.584,0.448 0.877,1.033 0.877,1.75 v 9.117 c 0,6.854 4.403,12.935 10.914,15.076 l 8.747,2.876 c 0.718,0.225 1.167,0.675 1.348,1.347 0.226,0.763 0.135,1.414 -0.269,1.952"
       style="fill:#142032;fill-opacity:1;fill-rule:nonzero;stroke:none"
       transform="matrix(1.41093,0,0,-1.41093,135.50134,83.429955)"
       clip-path="url(#clipPath38)" />
  </g>
</svg>
