<?xml version="1.0" encoding="UTF-8" standalone="no"?>
<!-- Created with Inkscape (http://www.inkscape.org/) -->

<svg
   width="188.49997mm"
   height="58.82703mm"
   viewBox="0 0 188.49997 58.82703"
   version="1.1"
   id="svg1"
   inkscape:version="1.4.2 (2aeb623e1d, 2025-05-12)"
   sodipodi:docname="solturi.svg"
   xmlns:inkscape="http://www.inkscape.org/namespaces/inkscape"
   xmlns:sodipodi="http://sodipodi.sourceforge.net/DTD/sodipodi-0.dtd"
   xmlns="http://www.w3.org/2000/svg"
   xmlns:svg="http://www.w3.org/2000/svg">
  <sodipodi:namedview
     id="namedview1"
     pagecolor="#ffffff"
     bordercolor="#000000"
     borderopacity="0.25"
     inkscape:showpageshadow="2"
     inkscape:pageopacity="0.0"
     inkscape:pagecheckerboard="0"
     inkscape:deskcolor="#d1d1d1"
     inkscape:document-units="mm"
     inkscape:zoom="0.68328423"
     inkscape:cx="354.17179"
     inkscape:cy="502.71905"
     inkscape:window-width="1920"
     inkscape:window-height="975"
     inkscape:window-x="0"
     inkscape:window-y="0"
     inkscape:window-maximized="1"
     inkscape:current-layer="layer1" />
  <defs
     id="defs1">
    <clipPath
       clipPathUnits="userSpaceOnUse"
       id="clipPath2">
      <path
         d="M 0,595.276 H 841.89 V 0 H 0 Z"
         transform="translate(-190.5289,-381.01481)"
         id="path2" />
    </clipPath>
    <clipPath
       clipPathUnits="userSpaceOnUse"
       id="clipPath4">
      <path
         d="M 0,595.276 H 841.89 V 0 H 0 Z"
         transform="translate(-394.40781,-282.4694)"
         id="path4" />
    </clipPath>
    <clipPath
       clipPathUnits="userSpaceOnUse"
       id="clipPath6">
      <path
         d="M 0,595.276 H 841.89 V 0 H 0 Z"
         transform="translate(-456.07481,-376.98251)"
         id="path6" />
    </clipPath>
    <clipPath
       clipPathUnits="userSpaceOnUse"
       id="clipPath8">
      <path
         d="M 0,595.276 H 841.89 V 0 H 0 Z"
         transform="translate(-560.02702,-378.77401)"
         id="path8" />
    </clipPath>
    <clipPath
       clipPathUnits="userSpaceOnUse"
       id="clipPath10">
      <path
         d="M 0,595.276 H 841.89 V 0 H 0 Z"
         transform="translate(-659.61392,-340.68181)"
         id="path10" />
    </clipPath>
    <clipPath
       clipPathUnits="userSpaceOnUse"
       id="clipPath12">
      <path
         d="M 0,595.276 H 841.89 V 0 H 0 Z"
         transform="translate(-682.71551,-376.98251)"
         id="path12" />
    </clipPath>
    <clipPath
       clipPathUnits="userSpaceOnUse"
       id="clipPath14">
      <path
         d="M 0,595.276 H 841.89 V 0 H 0 Z"
         transform="translate(-153.77991,-246.00451)"
         id="path14" />
    </clipPath>
    <clipPath
       clipPathUnits="userSpaceOnUse"
       id="clipPath16">
      <path
         d="M 0,595.276 H 841.89 V 0 H 0 Z"
         transform="translate(-216.33751,-214.2614)"
         id="path16" />
    </clipPath>
    <clipPath
       clipPathUnits="userSpaceOnUse"
       id="clipPath18">
      <path
         d="M 0,595.276 H 841.89 V 0 H 0 Z"
         transform="translate(-239.7028,-246.00451)"
         id="path18" />
    </clipPath>
    <clipPath
       clipPathUnits="userSpaceOnUse"
       id="clipPath20">
      <path
         d="M 0,595.276 H 841.89 V 0 H 0 Z"
         transform="translate(-287.27701,-229.8785)"
         id="path20" />
    </clipPath>
    <clipPath
       clipPathUnits="userSpaceOnUse"
       id="clipPath22">
      <path
         d="M 0,595.276 H 841.89 V 0 H 0 Z"
         transform="translate(-354.99961,-231.31801)"
         id="path22" />
    </clipPath>
    <clipPath
       clipPathUnits="userSpaceOnUse"
       id="clipPath24">
      <path
         d="M 0,595.276 H 841.89 V 0 H 0 Z"
         id="path24" />
    </clipPath>
    <clipPath
       clipPathUnits="userSpaceOnUse"
       id="clipPath26">
      <path
         d="M 0,595.276 H 841.89 V 0 H 0 Z"
         transform="translate(-412.73401,-225.4352)"
         id="path26" />
    </clipPath>
    <clipPath
       clipPathUnits="userSpaceOnUse"
       id="clipPath28">
      <path
         d="M 0,595.276 H 841.89 V 0 H 0 Z"
         transform="translate(-494.80531,-236.27011)"
         id="path28" />
    </clipPath>
    <clipPath
       clipPathUnits="userSpaceOnUse"
       id="clipPath30">
      <path
         d="M 0,595.276 H 841.89 V 0 H 0 Z"
         transform="translate(-536.41171,-237.70861)"
         id="path30" />
    </clipPath>
    <clipPath
       clipPathUnits="userSpaceOnUse"
       id="clipPath32">
      <path
         d="M 0,595.276 H 841.89 V 0 H 0 Z"
         transform="translate(-571.62952,-246.00451)"
         id="path32" />
    </clipPath>
    <clipPath
       clipPathUnits="userSpaceOnUse"
       id="clipPath34">
      <path
         d="M 0,595.276 H 841.89 V 0 H 0 Z"
         transform="translate(-622.29362,-225.4352)"
         id="path34" />
    </clipPath>
    <clipPath
       clipPathUnits="userSpaceOnUse"
       id="clipPath36">
      <path
         d="M 0,595.276 H 841.89 V 0 H 0 Z"
         transform="translate(-668.42932,-229.8785)"
         id="path36" />
    </clipPath>
    <clipPath
       clipPathUnits="userSpaceOnUse"
       id="clipPath38">
      <path
         d="M 0,595.276 H 841.89 V 0 H 0 Z"
         transform="translate(-296.3248,-322.93271)"
         id="path38" />
    </clipPath>
  </defs>
  <g
     inkscape:label="Layer 1"
     inkscape:groupmode="layer"
     id="layer1"
     transform="translate(-11.05341,-15.462768)">
    <path
       id="path1"
       d="m 0,0 -0.142,-0.003 c -19.278,-0.949 -34.964,-17.434 -34.964,-36.747 0,-5.102 1.206,-10.103 3.579,-14.848 1.959,-3.98 5.025,-7.43 7.993,-10.766 4.645,-5.225 9.032,-10.16 9.032,-16.64 0,-9.309 -8.437,-19.179 -17.318,-20.305 -2.856,-0.317 -4.929,-2.517 -4.929,-5.228 v -6.569 c 0,-3.264 2.157,-5.543 5.244,-5.543 h 0.082 l 0.082,0.005 c 19.176,1.109 34.195,17.184 34.195,36.595 0,12.635 -6.265,20.182 -12.324,27.481 -1.456,1.754 -2.961,3.568 -4.372,5.438 -2.262,3.017 -3.459,6.4 -3.459,9.783 0,4.582 4.155,11.492 5.136,12.616 l 0.109,0.116 c 2.538,2.842 6.756,6.386 12.37,7.126 3.635,0.404 4.93,2.887 4.93,5.078 v 6.868 C 5.244,-2.28 3.088,0 0,0"
       style="fill:#233266;fill-opacity:1;fill-rule:nonzero;stroke:none"
       transform="matrix(0.35277776,0,0,-0.35277776,24.01764,15.462768)"
       clip-path="url(#clipPath2)" />
    <path
       id="path3"
       d="m 0,0 h -49.553 v 89.418 c 0,3 -2.095,5.095 -5.096,5.095 h -7.614 c -3.136,0 -5.245,-2.047 -5.245,-5.095 V -13.009 c 0,-3.048 2.047,-5.095 5.095,-5.095 h 62.57 l 0.157,0.018 c 2.685,0.298 4.465,2.078 4.763,4.762 l 0.018,7.929 C 5.095,-2.369 2.856,0 0,0"
       style="fill:#233266;fill-opacity:1;fill-rule:nonzero;stroke:none"
       transform="matrix(0.35277776,0,0,-0.35277776,95.94159,50.227399)"
       clip-path="url(#clipPath4)" />
    <path
       id="path5"
       d="m 0,0 h -33.836 -7.523 -33.836 c -2.681,0 -4.881,-1.799 -5.475,-4.476 l -0.068,-0.619 v -7.316 c 0,-3.351 2.279,-5.692 5.543,-5.692 h 28.499 v -89.27 c 0,-1.6 0.758,-3.018 1.925,-3.981 0.913,-0.78 2.09,-1.263 3.412,-1.263 h 0.057 7.408 0.058 c 1.322,0 2.499,0.483 3.412,1.263 1.167,0.963 1.925,2.381 1.925,3.981 v 89.27 H 0 c 3.264,0 5.543,2.341 5.543,5.692 v 7.316 L 5.475,-4.476 C 4.881,-1.799 2.681,0 0,0"
       style="fill:#233266;fill-opacity:1;fill-rule:nonzero;stroke:none"
       transform="matrix(0.35277776,0,0,-0.35277776,117.69634,16.885274)"
       clip-path="url(#clipPath6)" />
    <path
       id="path7"
       d="m 0,0 h -7.018 c -3.025,0 -5.393,-2.237 -5.393,-5.094 v -60.62 c 0,-14.95 -8.825,-31.039 -28.201,-31.039 -16.774,0 -28.948,13.054 -28.948,31.039 v 60.62 C -69.56,-2.38 -72.011,0 -74.805,0 h -8.062 c -2.728,0 -4.946,-2.285 -4.946,-5.094 v -62.562 c 0,-25.342 21.341,-46.752 46.603,-46.752 26.3,0 46.902,20.536 46.902,46.752 V -5.094 C 5.692,-2.19 3.246,0 0,0"
       style="fill:#233266;fill-opacity:1;fill-rule:nonzero;stroke:none"
       transform="matrix(0.35277776,0,0,-0.35277776,154.36836,16.253272)"
       clip-path="url(#clipPath8)" />
    <path
       id="path9"
       d="m 0,0 c 0,19.677 -16.418,36.301 -35.854,36.301 l -42.611,0.23 c -3.137,0 -5.245,-2.047 -5.245,-5.094 v -7.466 c 0,-3.175 2.157,-5.393 5.245,-5.393 l 42.462,-0.231 c 9.29,0 17.75,-8.816 17.75,-18.496 0,-9.19 -7.844,-17.808 -16.809,-18.497 h -43.344 c -2.942,0 -5.245,-2.368 -5.245,-5.393 v -47.182 c 0,-3.095 2.059,-5.095 5.245,-5.095 h 7.762 c 3.048,0 5.096,2.047 5.096,5.095 v 34.622 h 21.063 l 21.738,-36.134 c 1.85,-2.962 4.125,-3.583 5.707,-3.583 h 11.198 c 3.997,0 4.199,2.752 4.199,3.304 0,0.97 -0.362,1.697 -0.747,2.468 l -21.584,35.988 C -9.89,-28.952 0,-14.961 0,0"
       style="fill:#233266;fill-opacity:1;fill-rule:nonzero;stroke:none"
       transform="matrix(0.35277776,0,0,-0.35277776,189.50041,29.691349)"
       clip-path="url(#clipPath10)" />
    <path
       id="path11"
       d="m 0,0 h -7.764 c -2.857,0 -5.094,-2.237 -5.094,-5.095 v -102.427 c 0,-3.048 2.046,-5.095 5.094,-5.095 H 0 c 3.177,0 5.395,2.096 5.395,5.095 V -5.244 C 5.395,-2.059 3.276,0 0,0"
       style="fill:#233266;fill-opacity:1;fill-rule:nonzero;stroke:none"
       transform="matrix(0.35277776,0,0,-0.35277776,197.65014,16.885274)"
       clip-path="url(#clipPath12)" />
    <path
       id="path13"
       d="M 0,0 H 19.723 V -6.899 H 8.338 v -5.164 h 10.073 v -7.026 H 8.338 v -5.84 h 11.385 v -6.814 H 0 Z"
       style="fill:#f1452a;fill-opacity:1;fill-rule:nonzero;stroke:none"
       transform="matrix(0.35277776,0,0,-0.35277776,11.05342,63.091399)"
       clip-path="url(#clipPath14)" />
    <path
       id="path15"
       d="M 0,0 -14.983,15.024 V 0 h -8.337 v 31.743 h 3.385 L -4.91,16.76 V 31.743 H 3.428 V 0 Z"
       style="fill:#f1452a;fill-opacity:1;fill-rule:nonzero;stroke:none"
       transform="matrix(0.35277776,0,0,-0.35277776,33.12235,74.289659)"
       clip-path="url(#clipPath16)" />
    <path
       id="path17"
       d="M 0,0 H 19.723 V -6.899 H 8.338 v -5.164 h 10.073 v -7.026 H 8.338 v -5.84 h 11.385 v -6.814 H 0 Z"
       style="fill:#f1452a;fill-opacity:1;fill-rule:nonzero;stroke:none"
       transform="matrix(0.35277776,0,0,-0.35277776,41.3651,63.091399)"
       clip-path="url(#clipPath18)" />
    <path
       id="path19"
       d="m 0,0 h 5.164 c 2.539,0 4.57,1.989 4.57,4.529 0,2.539 -2.031,4.571 -4.57,4.571 H 0 Z M 10.073,-15.617 5.164,-7.195 H 0 v -8.422 H -8.338 V 16.126 H 5.037 c 6.433,0 11.681,-5.248 11.681,-11.682 0,-3.385 -1.482,-6.433 -3.767,-8.549 l 6.73,-11.512 z"
       style="fill:#f1452a;fill-opacity:1;fill-rule:nonzero;stroke:none"
       transform="matrix(0.35277776,0,0,-0.35277776,58.14822,68.780299)"
       clip-path="url(#clipPath20)" />
    <path
       id="path21"
       d="m 0,0 v -1.186 c 0,-8.76 -7.11,-15.871 -15.872,-15.871 -8.761,0 -15.829,7.111 -15.829,15.871 0,8.762 7.068,15.873 15.829,15.873 4.359,0 8.296,-1.779 11.174,-4.614 l -5.883,-5.841 c -1.355,1.27 -3.132,2.117 -5.291,2.117 -3.979,0 -7.491,-3.175 -7.491,-7.535 0,-4.359 3.597,-7.533 7.491,-7.533 2.497,0 4.825,1.228 6.138,3.132 h -6.138 V 0 Z"
       style="fill:#f1452a;fill-opacity:1;fill-rule:nonzero;stroke:none"
       transform="matrix(0.35277776,0,0,-0.35277776,82.03925,68.272469)"
       clip-path="url(#clipPath22)" />
    <path
       id="path23"
       d="m 373.076,246.005 h 8.337 v -31.743 h -8.337 z"
       style="fill:#f1452a;fill-opacity:1;fill-rule:nonzero;stroke:none"
       transform="matrix(0.35277776,0,0,-0.35277776,-43.196714,149.87632)"
       clip-path="url(#clipPath24)" />
    <path
       id="path25"
       d="M 0,0 H 6.476 L 3.259,6.983 Z M -13.501,-11.174 1.312,20.569 H 5.079 L 20.02,-11.174 H 11.682 L 9.734,-7.026 H -3.259 l -1.904,-4.148 z"
       style="fill:#f1452a;fill-opacity:1;fill-rule:nonzero;stroke:none"
       transform="matrix(0.35277776,0,0,-0.35277776,102.40667,70.347799)"
       clip-path="url(#clipPath26)" />
    <path
       id="path27"
       d="m 0,0 c 0,1.312 -1.101,2.412 -2.412,2.412 -1.313,0 -2.37,-1.1 -2.37,-2.412 0,-1.312 1.057,-2.371 2.37,-2.371 3.089,0 5.883,-1.481 7.66,-3.767 1.355,-1.692 2.116,-3.808 2.116,-6.136 0,-5.417 -4.359,-9.735 -9.776,-9.735 -5.418,0 -9.777,4.275 -9.777,9.862 h 7.407 c 0,-1.355 1.057,-2.413 2.37,-2.413 1.311,0 2.412,1.058 2.412,2.371 0,1.311 -1.101,2.412 -2.412,2.412 -5.418,0 -9.735,4.317 -9.735,9.734 0,5.418 4.317,9.777 9.735,9.777 5.417,0 9.776,-4.317 9.776,-9.734 z"
       style="fill:#f1452a;fill-opacity:1;fill-rule:nonzero;stroke:none"
       transform="matrix(0.35277776,0,0,-0.35277776,131.3596,66.525479)"
       clip-path="url(#clipPath28)" />
    <path
       id="path29"
       d="m 0,0 c -4.147,0 -7.533,-3.386 -7.533,-7.576 0,-4.148 3.386,-7.576 7.533,-7.576 4.19,0 7.576,3.428 7.576,7.576 C 7.576,-3.386 4.19,0 0,0 m 0,8.296 c 8.762,0 15.872,-7.153 15.872,-15.914 0,-8.761 -7.11,-15.829 -15.872,-15.829 -8.761,0 -15.829,7.068 -15.829,15.829 0,8.761 7.068,15.914 15.829,15.914"
       style="fill:#f1452a;fill-opacity:1;fill-rule:nonzero;stroke:none"
       transform="matrix(0.35277776,0,0,-0.35277776,146.03741,66.018009)"
       clip-path="url(#clipPath30)" />
    <path
       id="path31"
       d="m 0,0 h 8.338 v -23.363 h 11.428 v -8.38 H 0 Z"
       style="fill:#f1452a;fill-opacity:1;fill-rule:nonzero;stroke:none"
       transform="matrix(0.35277776,0,0,-0.35277776,158.46147,63.091399)"
       clip-path="url(#clipPath32)" />
    <path
       id="path33"
       d="M 0,0 H 6.476 L 3.259,6.983 Z M -13.501,-11.174 1.312,20.569 H 5.079 L 20.02,-11.174 H 11.682 L 9.734,-7.026 H -3.259 l -1.904,-4.148 z"
       style="fill:#f1452a;fill-opacity:1;fill-rule:nonzero;stroke:none"
       transform="matrix(0.35277776,0,0,-0.35277776,176.33463,70.347799)"
       clip-path="url(#clipPath34)" />
    <path
       id="path35"
       d="M 0,0 H 5.163 C 7.703,0 9.734,1.989 9.734,4.529 9.734,7.068 7.703,9.1 5.163,9.1 H 0 Z m 10.073,-15.617 -4.91,8.422 H 0 v -8.422 H -8.338 V 16.126 H 5.036 c 6.434,0 11.682,-5.248 11.682,-11.682 0,-3.385 -1.482,-6.433 -3.767,-8.549 l 6.73,-11.512 z"
       style="fill:#f1452a;fill-opacity:1;fill-rule:nonzero;stroke:none"
       transform="matrix(0.35277776,0,0,-0.35277776,192.61028,68.780299)"
       clip-path="url(#clipPath36)" />
    <path
       id="path37"
       d="m 0,0 -9.363,-9.364 c -1.283,-1.283 -3.364,-1.283 -4.647,0 l -6.525,6.525 c -1.283,1.283 -1.283,3.363 0,4.646 l 9.364,9.364 c 1.283,1.283 3.363,1.283 4.646,0 L 0,4.646 C 1.283,3.363 1.283,1.283 0,0 m -15.319,-15.32 -9.365,-9.364 c -1.282,-1.283 -3.362,-1.283 -4.645,0 l -6.525,6.526 c -1.284,1.283 -1.284,3.363 0,4.646 l 9.363,9.364 c 1.283,1.283 3.363,1.283 4.646,0 l 6.526,-6.526 c 1.283,-1.283 1.283,-3.363 0,-4.646 m -15.32,-15.319 -9.364,-9.364 c -1.283,-1.284 -3.363,-1.284 -4.646,0 l -6.526,6.525 c -1.283,1.283 -1.283,3.363 0,4.646 l 9.364,9.364 c 1.284,1.283 3.364,1.283 4.647,0 l 6.525,-6.526 c 1.284,-1.282 1.284,-3.363 0,-4.645 m -26.168,2.793 -6.525,6.526 c -1.283,1.282 -1.283,3.362 0,4.646 l 9.364,9.363 c 1.283,1.284 3.363,1.284 4.646,0 l 6.526,-6.525 c 1.282,-1.283 1.282,-3.363 0,-4.646 l -9.364,-9.364 c -1.283,-1.283 -3.363,-1.283 -4.647,0 m -12.157,12.158 -6.525,6.525 c -1.283,1.283 -1.283,3.363 0,4.646 l 9.364,9.364 c 1.282,1.283 3.362,1.283 4.646,0 l 6.525,-6.525 c 1.283,-1.283 1.283,-3.364 0,-4.646 l -9.364,-9.364 c -1.283,-1.284 -3.363,-1.284 -4.646,0 m 8.794,26.491 9.364,9.364 c 1.284,1.283 3.364,1.283 4.647,0 l 6.525,-6.526 c 1.282,-1.283 1.282,-3.363 0,-4.646 l -9.364,-9.364 c -1.283,-1.283 -3.363,-1.283 -4.647,0 l -6.525,6.526 c -1.283,1.282 -1.283,3.363 0,4.646 m 15.319,15.319 9.365,9.364 c 1.283,1.283 3.363,1.283 4.646,0 l 6.526,-6.525 c 1.283,-1.283 1.283,-3.363 0,-4.646 l -9.365,-9.364 c -1.283,-1.283 -3.363,-1.283 -4.646,0 l -6.526,6.525 c -1.283,1.283 -1.283,3.363 0,4.646 m 17.374,-29.284 -9.364,-9.364 c -1.283,-1.284 -3.363,-1.284 -4.646,0 l -6.526,6.525 c -1.283,1.283 -1.283,3.363 0,4.646 l 9.365,9.364 c 1.283,1.283 3.363,1.283 4.646,0 l 6.525,-6.525 c 1.283,-1.283 1.283,-3.363 0,-4.646 m 8.794,26.491 6.526,-6.526 c 1.283,-1.282 1.283,-3.363 0,-4.646 l -9.364,-9.364 c -1.284,-1.283 -3.364,-1.283 -4.646,0 l -6.525,6.526 c -1.284,1.283 -1.284,3.363 0,4.646 l 9.363,9.364 c 1.283,1.283 3.363,1.283 4.646,0 m 38.04,-42.254 -5.355,7.378 C 9.967,-5.987 9.967,1.538 14.003,7.098 l 5.354,7.377 c 0.404,0.583 0.493,1.233 0.269,1.951 -0.181,0.675 -0.63,1.123 -1.348,1.347 L 9.531,20.65 C 3.02,22.791 -1.383,28.871 -1.383,35.726 v 9.117 c 0,0.718 -0.293,1.302 -0.877,1.751 -0.673,0.448 -1.324,0.538 -1.952,0.269 l -8.712,-2.804 c -6.532,-2.103 -13.676,0.231 -17.707,5.784 l -5.363,7.39 c -0.404,0.538 -0.987,0.808 -1.751,0.808 -0.763,0 -1.347,-0.27 -1.751,-0.808 l -5.364,-7.39 c -4.031,-5.554 -11.174,-7.887 -17.706,-5.785 l -8.713,2.805 c -0.628,0.269 -1.28,0.179 -1.953,-0.27 -0.583,-0.448 -0.875,-1.032 -0.875,-1.75 v -9.117 c 0,-6.855 -4.402,-12.935 -10.914,-15.076 l -8.749,-2.877 c -0.717,-0.224 -1.167,-0.673 -1.346,-1.347 -0.224,-0.718 -0.135,-1.368 0.269,-1.951 l 5.355,-7.378 c 4.035,-5.559 4.036,-13.084 0.001,-18.644 l -5.356,-7.378 c -0.404,-0.538 -0.493,-1.189 -0.269,-1.952 0.179,-0.671 0.629,-1.121 1.346,-1.347 l 8.749,-2.876 c 6.512,-2.141 10.914,-8.222 10.914,-15.076 v -9.117 c 0,-0.717 0.292,-1.302 0.875,-1.75 0.673,-0.45 1.325,-0.54 1.953,-0.271 l 8.713,2.805 c 6.532,2.103 13.675,-0.231 17.706,-5.784 l 5.364,-7.39 c 0.449,-0.583 1.032,-0.875 1.751,-0.875 0.718,0 1.302,0.292 1.751,0.875 l 5.363,7.39 c 4.031,5.553 11.175,7.887 17.707,5.785 l 8.713,-2.806 c 0.627,-0.269 1.278,-0.179 1.951,0.271 0.584,0.448 0.877,1.033 0.877,1.75 v 9.117 c 0,6.854 4.403,12.935 10.914,15.076 l 8.747,2.876 c 0.718,0.225 1.167,0.675 1.348,1.347 0.226,0.763 0.135,1.414 -0.269,1.952"
       style="fill:#f1452a;fill-opacity:1;fill-rule:nonzero;stroke:none"
       transform="matrix(0.35277776,0,0,-0.35277776,61.34009,35.952839)"
       clip-path="url(#clipPath38)" />
  </g>
</svg>
